<?xml version="1.0" encoding="UTF-8"?>
<svg width="20px" height="20px" viewBox="0 0 20 20" version="1.1" xmlns="http://www.w3.org/2000/svg" xmlns:xlink="http://www.w3.org/1999/xlink">
    <title>atom / buttons / radio / plp nav level</title>
    <defs>
        <polygon id="path-1" points="1.675 0.5 5.5 4.8265857 9.325 0.5 10.5 1.83198381 5.5 7.5 0.5 1.83198381"></polygon>
    </defs>
    <g id="Megamenú-" stroke="none" stroke-width="1" fill="none" fill-rule="evenodd">
        <g id="04----CLP---Desktop" transform="translate(-82.000000, -201.000000)">
            <g id="Title" transform="translate(80.000000, 199.000000)">
                <g id="Group-4-Copy" transform="translate(2.000000, 2.000000)">
                    <g id="Assets-/-Icon---Dark_Arrow@24px" transform="translate(9.500000, 10.000000) rotate(-270.000000) translate(-9.500000, -10.000000) translate(4.000000, 6.000000)">
                        <mask id="mask-2" fill="white">
                            <use xlink:href="#path-1"></use>
                        </mask>
                        <use id="Shape" fill="#ADA8A8" fill-rule="nonzero" xlink:href="#path-1"></use>
                    </g>
                    <path d="M10,0 C4.48,0 0,4.48 0,10 C0,15.52 4.48,20 10,20 C15.52,20 20,15.52 20,10 C20,4.48 15.52,0 10,0 Z M10,19 C5.0275,19 1,14.9725 1,10 C1,5.0275 5.0275,1 10,1 C14.9725,1 19,5.0275 19,10 C19,14.9725 14.9725,19 10,19 Z" id="Shape" fill="#ADA8A8"></path>
                </g>
            </g>
        </g>
    </g>
</svg>